<?xml version="1.0" encoding="UTF-8" standalone="no"?>
<!DOCTYPE svg PUBLIC "-//W3C//DTD SVG 1.1//EN" "http://www.w3.org/Graphics/SVG/1.1/DTD/svg11.dtd">
<svg version="1.1" xmlns="http://www.w3.org/2000/svg" xmlns:xlink="http://www.w3.org/1999/xlink" preserveAspectRatio="xMidYMid meet" viewBox="0 0 640 640" width="80" height="80"><defs><path d="M344.51 0.93L357.41 2.17L370.16 3.93L382.74 6.18L395.16 8.91L407.39 12.13L419.42 15.81L431.25 19.95L442.87 24.53L454.27 29.55L465.42 35L476.33 40.86L486.99 47.12L497.38 53.78L507.49 60.82L517.32 68.24L526.84 76.02L536.06 84.16L544.96 92.63L553.54 101.44L561.77 110.58L569.65 120.02L577.17 129.77L584.32 139.8L591.09 150.12L597.47 160.71L603.44 171.56L609.01 182.66L614.15 194L618.86 205.57L623.12 217.35L626.93 229.35L630.27 241.54L633.14 253.93L635.52 266.49L637.41 279.22L638.79 292.1L639.66 305.13L640 318.3L639.96 325.09L639.78 331.84L639.47 338.56L639.01 345.25L638.42 351.89L637.69 358.5L636.83 365.07L635.84 371.59L634.71 378.07L633.46 384.51L632.07 390.9L630.56 397.24L628.92 403.53L627.16 409.78L625.28 415.97L623.27 422.11L621.14 428.19L618.9 434.22L616.54 440.19L614.06 446.1L611.46 451.95L608.76 457.74L605.94 463.46L603.01 469.13L599.98 474.72L596.83 480.25L593.59 485.71L590.23 491.1L586.77 496.42L583.22 501.67L579.56 506.84L575.8 511.93L571.94 516.95L567.99 521.89L563.94 526.75L559.8 531.53L555.57 536.23L551.25 540.84L546.84 545.37L542.34 549.81L542.33 549.82L542.32 549.84L542.31 549.85L542.29 549.87L542.28 549.88L542.27 549.9L542.26 549.91L542.25 549.93L542.24 549.94L542.23 549.96L542.22 549.97L542.21 549.99L542.2 550.01L542.19 550.02L542.18 550.04L542.17 550.05L542.16 550.07L542.13 550.13L542.12 550.15L542.11 550.17L542.1 550.18L542.09 550.2L542.08 550.22L542.07 550.23L542.06 550.25L542.05 550.26L542.04 550.28L542.03 550.29L542.02 550.31L542.01 550.32L541.99 550.34L541.98 550.35L541.97 550.37L541.96 550.38L541.95 550.39L541.93 550.41L541.92 550.42L541.81 550.53L541.69 550.64L541.58 550.74L541.47 550.85L541.35 550.96L541.24 551.07L541.12 551.17L541.01 551.28L540.89 551.39L540.78 551.49L540.66 551.6L540.55 551.7L540.43 551.81L540.32 551.92L540.2 552.02L540.09 552.13L539.97 552.23L539.86 552.34L539.74 552.44L539.51 552.65L539.4 552.76L539.28 552.86L539.17 552.97L539.05 553.07L538.94 553.18L538.82 553.28L538.71 553.39L538.59 553.5L538.48 553.6L538.36 553.71L538.25 553.81L538.14 553.92L538.02 554.03L537.91 554.13L537.8 554.24L537.68 554.35L537.57 554.45L537.46 554.56L537.34 554.67L535.27 556.57L535.04 556.78L534.8 557L534.56 557.22L534.32 557.43L534.08 557.65L533.84 557.86L533.61 558.08L533.37 558.29L533.13 558.5L532.89 558.72L532.65 558.93L532.41 559.14L532.17 559.36L531.93 559.57L531.69 559.78L531.45 560L531.21 560.21L530.97 560.42L530.73 560.63L530.49 560.84L530.25 561.05L530 561.26L529.76 561.47L529.52 561.68L529.28 561.89L529.04 562.1L528.8 562.31L528.55 562.52L528.31 562.73L528.07 562.94L527.83 563.15L527.58 563.36L527.34 563.56L527.1 563.77L526.85 563.98L526.61 564.19L526.37 564.39L526.12 564.6L525.88 564.81L525.63 565.01L525.46 565.16L525.42 565.2L525.37 565.24L525.33 565.27L525.28 565.31L525.24 565.35L525.2 565.38L525.15 565.42L525.11 565.46L525.06 565.49L525.02 565.53L524.98 565.57L524.93 565.6L524.89 565.64L524.84 565.68L524.8 565.72L524.76 565.75L524.71 565.79L524.67 565.83L524.62 565.86L524.58 565.9L524.54 565.94L524.49 565.97L524.45 566.01L524.4 566.05L524.36 566.08L524.32 566.12L524.27 566.16L524.23 566.19L524.18 566.23L524.14 566.27L524.09 566.3L524.05 566.34L524.01 566.37L523.96 566.41L523.92 566.45L523.87 566.48L523.61 566.7L523.35 566.91L523.09 567.13L522.83 567.34L522.58 567.55L522.32 567.76L522.06 567.98L521.8 568.19L521.54 568.4L521.28 568.61L521.02 568.82L520.76 569.03L520.49 569.24L520.23 569.45L519.97 569.66L519.71 569.87L519.45 570.08L519.19 570.29L518.93 570.5L518.67 570.71L518.4 570.92L518.14 571.13L517.88 571.33L517.62 571.54L517.35 571.75L517.09 571.96L516.83 572.16L516.56 572.37L516.3 572.57L516.04 572.78L515.77 572.98L515.51 573.19L515.24 573.39L514.98 573.6L514.72 573.8L514.45 574.01L514.18 574.21L513.92 574.41L513.65 574.61L513.39 574.82L513.35 574.84L513.32 574.87L513.29 574.89L513.25 574.92L513.22 574.94L513.19 574.97L513.15 574.99L513.09 575.04L513.05 575.07L512.99 575.12L512.92 575.17L512.89 575.2L512.82 575.25L512.79 575.27L512.62 575.4L512.58 575.42L512.52 575.47L512.45 575.52L512.38 575.58L512.35 575.6L512.28 575.65L512.25 575.68L512.22 575.7L512.18 575.73L512.15 575.75L512.12 575.78L512.08 575.8L512.05 575.83L511.77 576.04L511.49 576.25L511.21 576.46L510.93 576.67L510.65 576.88L510.37 577.09L510.09 577.3L509.8 577.51L509.52 577.71L509.24 577.92L508.96 578.13L508.68 578.34L508.39 578.54L508.11 578.75L507.83 578.96L507.54 579.16L507.26 579.37L506.98 579.57L506.69 579.78L506.41 579.98L506.13 580.19L505.84 580.39L505.56 580.6L505.27 580.8L504.99 581L504.7 581.2L504.42 581.41L504.13 581.61L503.84 581.81L503.56 582.01L503.27 582.21L502.99 582.41L502.7 582.61L502.41 582.81L502.13 583.01L501.84 583.21L501.55 583.41L501.26 583.61L500.98 583.81L500.69 584L500.67 584.02L500.64 584.04L500.62 584.05L500.6 584.07L500.57 584.08L500.55 584.1L500.5 584.13L500.46 584.16L500.41 584.2L500.39 584.21L500.34 584.24L500.27 584.29L500.18 584.35L500.11 584.4L500.09 584.42L500.04 584.45L500 584.48L499.95 584.51L499.9 584.54L499.88 584.56L499.86 584.57L499.83 584.59L499.81 584.61L499.79 584.62L499.76 584.64L499.47 584.84L499.17 585.04L498.87 585.25L498.57 585.45L498.27 585.65L497.97 585.85L497.67 586.05L497.37 586.25L497.07 586.45L496.77 586.65L496.47 586.85L496.17 587.05L495.87 587.25L495.57 587.45L495.27 587.65L494.97 587.84L494.67 588.04L494.37 588.24L494.06 588.43L493.76 588.63L493.46 588.83L493.16 589.02L492.85 589.22L492.55 589.41L492.25 589.61L491.95 589.8L491.64 589.99L491.34 590.19L491.03 590.38L490.73 590.57L490.43 590.77L490.12 590.96L489.82 591.15L489.51 591.34L489.21 591.53L488.9 591.72L488.6 591.91L488.29 592.1L487.98 592.29L487.68 592.48L487.66 592.49L487.64 592.5L487.62 592.51L487.6 592.52L487.58 592.54L487.56 592.55L487.54 592.56L487.52 592.57L487.5 592.58L487.48 592.59L487.44 592.62L487.42 592.63L487.4 592.64L487.38 592.65L487.34 592.68L487.32 592.69L487.31 592.7L487.29 592.71L487.27 592.72L487.23 592.75L487.19 592.77L487.17 592.78L487.15 592.8L487.13 592.81L487.11 592.82L487.06 592.86L487.02 592.88L486.98 592.9L486.9 592.95L486.59 593.14L486.28 593.33L485.97 593.52L485.66 593.71L485.35 593.9L485.04 594.08L484.73 594.27L484.42 594.46L484.1 594.64L483.79 594.83L483.48 595.02L483.17 595.2L482.86 595.39L482.55 595.57L482.23 595.76L481.92 595.94L481.61 596.12L481.3 596.31L480.98 596.49L480.67 596.67L480.36 596.86L480.04 597.04L479.73 597.22L479.42 597.4L479.1 597.58L478.79 597.76L478.47 597.94L478.16 598.12L477.84 598.3L477.53 598.48L477.21 598.66L476.9 598.84L476.58 599.02L476.27 599.19L475.95 599.37L475.63 599.55L475.32 599.72L475 599.9L474.68 600.08L474.36 600.25L474.34 600.26L474.32 600.28L474.3 600.29L474.28 600.3L474.26 600.31L474.24 600.32L474.22 600.34L474.2 600.35L474.18 600.36L474.16 600.37L474.13 600.38L474.11 600.39L474.09 600.41L474.07 600.42L474.05 600.43L474.03 600.44L473.99 600.46L473.94 600.49L473.92 600.5L473.81 600.56L473.77 600.58L473.73 600.61L473.69 600.63L473.66 600.64L473.62 600.66L473.6 600.68L473.56 600.7L473.54 600.71L473.51 600.73L473.2 600.9L472.88 601.07L472.57 601.24L472.26 601.41L471.94 601.58L471.63 601.75L471.31 601.92L470.99 602.09L470.68 602.26L470.36 602.43L470.05 602.6L469.73 602.76L469.41 602.93L469.1 603.1L468.78 603.27L468.46 603.43L468.15 603.6L467.83 603.76L467.51 603.93L467.2 604.09L466.88 604.26L466.56 604.42L466.24 604.59L465.92 604.75L465.61 604.91L465.29 605.08L464.97 605.24L464.65 605.4L464.33 605.56L464.01 605.73L463.69 605.89L463.37 606.05L463.05 606.21L462.73 606.37L462.41 606.53L462.09 606.69L461.77 606.85L461.45 607L461.13 607.16L460.81 607.32L460.75 607.35L460.69 607.38L460.66 607.39L460.61 607.42L460.55 607.45L460.49 607.48L460.43 607.51L460.4 607.52L460.31 607.57L460.1 607.67L460.01 607.71L459.95 607.74L459.89 607.77L459.83 607.8L459.8 607.82L459.74 607.84L459.68 607.87L459.62 607.9L459.31 608.05L459 608.21L458.68 608.36L458.37 608.51L458.06 608.66L457.75 608.81L457.43 608.96L457.12 609.11L456.81 609.26L456.49 609.4L456.18 609.55L455.87 609.7L455.55 609.85L455.24 609.99L454.92 610.14L454.61 610.29L454.29 610.43L453.98 610.58L453.66 610.72L453.35 610.87L453.03 611.01L452.72 611.16L452.4 611.3L452.09 611.44L451.77 611.58L451.46 611.73L451.14 611.87L450.83 612.01L450.51 612.15L450.19 612.29L449.88 612.43L449.56 612.58L449.24 612.72L448.93 612.86L448.61 612.99L448.29 613.13L447.97 613.27L447.66 613.41L447.34 613.55L447.02 613.69L446.98 613.71L446.93 613.72L446.89 613.74L446.85 613.76L446.8 613.78L446.76 613.8L446.72 613.82L446.67 613.84L446.63 613.86L446.58 613.88L446.54 613.89L446.5 613.91L446.45 613.93L446.41 613.95L446.37 613.97L446.32 613.99L446.24 614.03L446.02 614.12L445.93 614.16L445.89 614.18L445.84 614.2L445.8 614.22L445.76 614.24L445.71 614.26L445.67 614.27L445.63 614.29L445.58 614.31L445.54 614.33L445.5 614.35L445.45 614.37L445.41 614.39L445.36 614.41L445.32 614.42L445.28 614.44L444.97 614.57L444.67 614.7L444.37 614.83L444.06 614.96L443.76 615.08L443.45 615.21L443.15 615.34L442.85 615.46L442.54 615.59L442.24 615.72L441.93 615.84L441.63 615.97L441.32 616.09L441.02 616.22L440.71 616.34L440.4 616.46L440.1 616.59L439.79 616.71L439.49 616.83L439.18 616.96L438.87 617.08L438.57 617.2L438.26 617.32L437.96 617.44L437.65 617.57L437.34 617.69L437.03 617.81L436.73 617.93L436.42 618.05L436.11 618.17L435.81 618.29L435.5 618.41L435.19 618.53L434.88 618.64L434.58 618.76L434.27 618.88L433.96 619L433.65 619.12L433.34 619.23L433.04 619.35L432.97 619.37L432.91 619.4L432.85 619.42L432.79 619.45L432.72 619.47L432.66 619.49L432.6 619.52L432.54 619.54L432.48 619.56L432.41 619.59L432.35 619.61L432.29 619.64L432.23 619.66L432.1 619.71L431.91 619.78L431.79 619.83L431.66 619.87L431.6 619.9L431.54 619.92L431.48 619.95L431.41 619.97L431.35 619.99L431.29 620.02L431.23 620.04L431.16 620.07L431.1 620.09L431.04 620.11L430.98 620.14L430.91 620.16L430.85 620.18L430.79 620.21L430.72 620.23L430.66 620.26L430.6 620.28L430.53 620.3L430.24 620.41L429.95 620.52L429.66 620.62L429.37 620.73L429.08 620.83L428.79 620.94L428.5 621.05L428.21 621.15L427.92 621.25L427.62 621.36L427.33 621.46L427.04 621.57L426.75 621.67L426.46 621.77L426.17 621.87L425.87 621.98L425.58 622.08L425.29 622.18L425 622.28L424.7 622.38L424.41 622.48L424.12 622.58L423.83 622.68L423.53 622.78L423.24 622.88L422.95 622.98L422.65 623.08L422.36 623.18L422.07 623.28L421.77 623.38L421.48 623.48L421.19 623.57L420.89 623.67L420.6 623.77L420.31 623.86L420.01 623.96L419.72 624.06L419.42 624.15L419.13 624.25L418.83 624.34L418.75 624.37L418.67 624.4L418.58 624.43L418.5 624.45L418.41 624.48L418.33 624.51L418 624.62L417.91 624.65L417.83 624.67L417.75 624.7L417.67 624.73L417.58 624.76L417.5 624.78L417.42 624.81L417.33 624.84L417.25 624.87L417.17 624.89L417.08 624.92L417 624.95L416.92 624.98L416.83 625L416.75 625.03L416.67 625.06L416.58 625.08L416.5 625.11L416.42 625.14L416.34 625.16L416.25 625.19L416.17 625.22L416.09 625.24L416 625.27L415.92 625.3L415.83 625.32L415.75 625.35L415.67 625.38L415.58 625.4L415.5 625.43L415.22 625.51L414.95 625.6L414.67 625.69L414.39 625.77L414.12 625.86L413.84 625.94L413.56 626.02L413.29 626.11L413.01 626.19L412.73 626.28L412.46 626.36L412.18 626.44L411.9 626.52L411.62 626.61L411.35 626.69L411.07 626.77L410.79 626.85L410.51 626.93L410.24 627.01L409.96 627.09L409.68 627.17L409.4 627.25L409.12 627.33L408.85 627.41L408.57 627.49L408.29 627.57L408.01 627.65L407.73 627.73L407.46 627.81L407.18 627.89L406.9 627.96L406.62 628.04L406.34 628.12L406.06 628.2L405.79 628.27L405.51 628.35L405.23 628.43L404.95 628.5L404.67 628.58L404.39 628.66L404.29 628.68L404.18 628.71L404.08 628.74L403.98 628.77L403.87 628.8L403.77 628.83L403.66 628.86L403.56 628.89L403.46 628.91L403.35 628.94L403.25 628.97L403.15 629L402.94 629.06L402.83 629.09L402.73 629.12L402.63 629.15L402.52 629.18L402.42 629.21L402.31 629.23L402.21 629.26L402.11 629.29L402 629.32L401.9 629.35L401.79 629.38L401.69 629.41L401.58 629.44L401.48 629.46L401.38 629.49L401.27 629.52L401.17 629.55L401.06 629.58L400.96 629.6L400.85 629.63L400.75 629.66L400.65 629.69L400.54 629.72L400.44 629.74L400.33 629.77L400.23 629.8L399.96 629.86L399.7 629.93L399.44 630L399.18 630.07L398.92 630.13L398.65 630.2L398.39 630.26L398.13 630.33L397.86 630.39L397.6 630.46L397.34 630.52L397.07 630.59L396.81 630.65L396.55 630.71L396.28 630.78L396.02 630.84L395.76 630.9L395.49 630.97L395.23 631.03L394.97 631.09L394.7 631.15L394.44 631.21L394.17 631.28L393.91 631.34L393.65 631.4L393.38 631.46L393.12 631.52L392.85 631.58L392.59 631.64L392.32 631.7L392.06 631.76L391.8 631.82L391.53 631.88L391.27 631.94L391 632L390.74 632.06L390.47 632.12L390.21 632.18L389.94 632.24L389.68 632.3L389.56 632.32L389.44 632.35L389.31 632.38L389.19 632.4L389.07 632.43L388.95 632.46L388.82 632.49L388.7 632.52L388.58 632.54L388.46 632.57L388.34 632.6L388.21 632.63L388.09 632.65L387.97 632.68L387.85 632.71L387.72 632.74L387.6 632.77L387.48 632.79L387.36 632.82L387.23 632.85L387.11 632.88L386.99 632.91L386.87 632.93L386.74 632.96L386.62 632.99L386.5 633.02L386.38 633.04L386.25 633.07L386.13 633.1L386.01 633.13L385.89 633.15L385.76 633.18L385.64 633.21L385.52 633.23L385.39 633.26L385.27 633.29L385.15 633.31L385.03 633.34L384.9 633.36L384.78 633.39L384.53 633.44L384.28 633.49L384.02 633.54L383.77 633.59L383.52 633.64L383.27 633.69L383.02 633.74L382.76 633.79L382.51 633.84L382.26 633.89L382.01 633.94L381.75 633.99L381.5 634.03L381.25 634.08L381 634.13L380.74 634.18L380.49 634.22L380.24 634.27L379.98 634.32L379.73 634.36L379.48 634.41L379.23 634.45L378.97 634.5L378.72 634.55L378.47 634.59L378.21 634.64L377.96 634.68L377.71 634.73L377.45 634.77L377.2 634.81L376.95 634.86L376.69 634.9L376.44 634.95L376.19 634.99L375.93 635.04L375.68 635.08L375.43 635.12L375.17 635.17L374.92 635.21L374.67 635.26L374.53 635.28L374.39 635.3L374.25 635.33L374.12 635.35L373.98 635.37L373.84 635.4L373.71 635.42L373.57 635.44L373.43 635.47L373.29 635.49L373.16 635.52L373.02 635.54L372.88 635.57L372.75 635.59L372.61 635.61L372.34 635.66L372.2 635.69L372.06 635.71L371.93 635.74L371.79 635.76L371.65 635.79L371.52 635.81L371.38 635.83L371.24 635.86L371.1 635.88L370.97 635.91L370.83 635.93L370.69 635.95L370.56 635.98L370.42 636L370.28 636.02L370.14 636.05L370.01 636.07L369.87 636.09L369.73 636.11L369.59 636.14L369.45 636.16L369.32 636.18L369.18 636.2L368.93 636.24L368.68 636.28L368.43 636.31L368.19 636.35L367.94 636.39L367.69 636.42L367.44 636.46L367.19 636.5L366.94 636.53L366.7 636.57L366.45 636.6L366.2 636.63L365.95 636.67L365.7 636.7L365.45 636.74L365.2 636.77L364.95 636.8L364.71 636.83L364.46 636.87L364.21 636.9L363.96 636.93L363.71 636.96L363.46 637L363.21 637.03L362.96 637.06L362.71 637.09L362.46 637.12L362.21 637.15L361.96 637.18L361.71 637.22L361.46 637.25L361.21 637.28L360.96 637.31L360.71 637.34L360.46 637.37L360.21 637.4L359.71 637.46L359.46 637.49L359.21 637.52L359.07 637.54L358.93 637.56L358.78 637.58L358.64 637.6L358.5 637.61L358.35 637.63L358.21 637.65L358.07 637.67L357.92 637.69L357.78 637.71L357.64 637.72L357.5 637.74L357.35 637.76L357.07 637.8L356.92 637.82L356.78 637.84L356.64 637.86L356.5 637.87L356.35 637.89L356.21 637.91L356.07 637.93L355.92 637.95L355.78 637.97L355.64 637.98L355.49 638L355.35 638.02L355.21 638.04L355.06 638.06L354.92 638.07L354.77 638.09L354.63 638.11L354.49 638.13L354.34 638.14L354.2 638.16L354.05 638.17L353.91 638.19L353.77 638.21L353.62 638.22L353.48 638.24L353.21 638.27L352.94 638.29L352.68 638.32L352.41 638.35L352.14 638.37L351.88 638.4L351.61 638.42L351.34 638.45L351.08 638.47L350.81 638.5L350.54 638.52L350.28 638.54L350.01 638.57L349.74 638.59L349.47 638.61L349.21 638.63L348.94 638.66L348.67 638.68L348.41 638.7L348.14 638.72L347.87 638.74L347.6 638.76L347.34 638.78L347.07 638.8L346.8 638.82L346.53 638.84L346.26 638.86L346 638.88L345.73 638.9L345.46 638.92L345.19 638.94L344.93 638.96L344.66 638.98L344.39 639L344.12 639.02L343.85 639.04L343.59 639.06L343.32 639.08L343.05 639.1L342.78 639.12L342.65 639.12L342.53 639.13L342.4 639.14L342.27 639.15L342.14 639.16L342.01 639.17L341.88 639.18L341.75 639.19L341.63 639.2L341.5 639.21L341.37 639.22L341.24 639.23L341.11 639.24L340.99 639.25L340.86 639.26L340.73 639.28L340.47 639.3L340.35 639.31L340.22 639.32L340.09 639.33L339.96 639.34L339.83 639.35L339.71 639.36L339.58 639.37L339.45 639.38L339.32 639.39L339.19 639.4L339.07 639.41L338.94 639.42L338.81 639.43L338.68 639.44L338.55 639.45L338.42 639.46L338.3 639.47L338.17 639.47L338.04 639.48L337.91 639.49L337.78 639.5L337.65 639.51L337.26 639.53L336.86 639.55L336.46 639.57L336.06 639.59L335.67 639.61L335.27 639.63L334.87 639.65L334.47 639.67L334.07 639.68L333.68 639.7L333.28 639.72L332.88 639.74L332.48 639.75L332.08 639.77L331.69 639.78L331.29 639.8L330.89 639.81L330.49 639.82L330.09 639.84L329.69 639.85L329.29 639.86L328.9 639.87L328.5 639.89L328.1 639.9L327.7 639.91L327.3 639.92L326.9 639.92L326.5 639.93L326.1 639.94L325.7 639.95L325.3 639.96L324.9 639.96L324.5 639.97L324.1 639.97L323.7 639.98L323.3 639.98L322.9 639.99L322.5 639.99L322.1 639.99L321.7 640L321.3 640L320.9 640L320.5 640L320.1 640L319.7 640L319.3 640L318.9 640L318.5 640L318.1 639.99L317.7 639.99L317.3 639.99L316.9 639.98L316.5 639.98L316.1 639.97L315.7 639.97L315.3 639.96L314.9 639.96L314.5 639.95L314.11 639.94L313.71 639.93L313.31 639.92L312.91 639.91L312.51 639.9L312.12 639.89L311.72 639.88L311.32 639.87L310.92 639.86L310.53 639.85L310.13 639.83L309.73 639.82L309.34 639.81L308.94 639.79L308.54 639.78L308.15 639.76L307.75 639.74L307.35 639.73L306.96 639.71L306.56 639.69L306.17 639.67L305.77 639.65L305.64 639.65L305.51 639.64L305.39 639.63L305.26 639.63L305.13 639.62L305 639.61L304.87 639.61L304.74 639.6L304.61 639.59L304.49 639.58L304.36 639.57L304.23 639.57L304.1 639.56L303.97 639.55L303.85 639.54L303.72 639.53L303.59 639.52L303.46 639.51L303.33 639.5L303.21 639.49L303.08 639.48L302.95 639.47L302.69 639.46L302.56 639.45L302.44 639.44L302.31 639.43L302.18 639.42L302.05 639.41L301.92 639.4L301.8 639.39L301.67 639.38L301.54 639.37L301.41 639.37L301.28 639.36L301.15 639.35L301.03 639.34L300.9 639.33L300.77 639.33L300.64 639.32L300.37 639.3L300.1 639.29L299.83 639.27L299.57 639.25L299.3 639.24L299.03 639.22L298.76 639.2L298.49 639.19L298.23 639.17L297.96 639.15L297.69 639.14L297.42 639.12L297.15 639.1L296.89 639.09L296.62 639.07L296.35 639.05L296.08 639.03L295.82 639.02L295.55 639L295.28 638.98L295.01 638.96L294.74 638.94L294.48 638.92L294.21 638.9L293.94 638.88L293.67 638.87L293.41 638.85L293.14 638.82L292.87 638.8L292.6 638.78L292.34 638.76L292.07 638.74L291.8 638.72L291.54 638.7L291.27 638.67L291 638.65L290.74 638.63L290.47 638.6L290.2 638.58L289.94 638.55L289.79 638.54L289.65 638.53L289.5 638.51L289.36 638.5L289.22 638.48L289.07 638.47L288.93 638.45L288.79 638.44L288.64 638.42L288.5 638.4L288.36 638.39L288.21 638.37L288.07 638.36L287.92 638.34L287.78 638.32L287.64 638.31L287.49 638.29L287.35 638.27L287.21 638.26L287.06 638.24L286.92 638.22L286.78 638.21L286.64 638.19L286.49 638.17L286.21 638.14L286.06 638.12L285.92 638.1L285.77 638.08L285.63 638.07L285.49 638.05L285.34 638.03L285.2 638.02L285.06 638L284.91 637.98L284.77 637.97L284.63 637.95L284.48 637.93L284.34 637.92L284.19 637.9L283.94 637.87L283.69 637.85L283.44 637.82L283.19 637.79L282.94 637.76L282.69 637.74L282.44 637.71L282.19 637.68L281.94 637.65L281.69 637.62L281.44 637.59L281.2 637.57L280.95 637.54L280.7 637.51L280.45 637.48L280.2 637.45L279.95 637.42L279.7 637.39L279.45 637.36L279.2 637.33L278.95 637.3L278.7 637.27L278.45 637.24L278.2 637.21L277.95 637.18L277.7 637.15L277.45 637.12L277.2 637.09L276.95 637.06L276.7 637.02L276.45 636.99L276.2 636.96L275.95 636.92L275.71 636.89L275.46 636.86L275.21 636.82L274.96 636.79L274.71 636.76L274.46 636.72L274.21 636.68L274.08 636.67L273.94 636.65L273.8 636.63L273.66 636.61L273.52 636.59L273.38 636.56L273.25 636.54L273.11 636.52L272.97 636.5L272.83 636.48L272.7 636.46L272.56 636.44L272.42 636.41L272.28 636.39L272.15 636.37L272.01 636.35L271.87 636.33L271.74 636.3L271.6 636.28L271.46 636.26L271.32 636.23L271.19 636.21L271.05 636.19L270.91 636.16L270.78 636.14L270.64 636.12L270.5 636.1L270.36 636.07L270.23 636.05L270.09 636.03L269.95 636L269.82 635.98L269.68 635.96L269.54 635.93L269.4 635.91L269.27 635.89L269.13 635.86L268.99 635.84L268.85 635.82L268.72 635.8L268.46 635.76L268.21 635.71L267.95 635.67L267.7 635.63L267.45 635.59L267.19 635.55L266.94 635.51L266.69 635.47L266.43 635.42L266.18 635.38L265.92 635.34L265.67 635.3L265.42 635.26L265.16 635.21L264.91 635.17L264.66 635.13L264.4 635.09L264.15 635.04L263.9 635L263.64 634.96L263.39 634.91L263.14 634.87L262.88 634.83L262.63 634.78L262.38 634.74L262.12 634.69L261.87 634.65L261.62 634.6L261.36 634.56L261.11 634.51L260.86 634.47L260.6 634.42L260.35 634.37L260.1 634.33L259.85 634.28L259.59 634.23L259.34 634.18L259.09 634.13L258.84 634.09L258.58 634.04L258.46 634.01L258.34 633.99L258.21 633.96L258.09 633.94L257.97 633.91L257.84 633.89L257.72 633.86L257.6 633.84L257.48 633.81L257.35 633.79L257.23 633.76L257.11 633.74L256.98 633.71L256.86 633.68L256.74 633.66L256.61 633.63L256.49 633.6L256.37 633.58L256.25 633.55L256.12 633.52L256 633.5L255.88 633.47L255.76 633.45L255.63 633.42L255.26 633.34L255.14 633.31L255.02 633.29L254.9 633.26L254.77 633.23L254.65 633.21L254.53 633.18L254.41 633.15L254.28 633.13L254.16 633.1L254.04 633.07L253.92 633.05L253.79 633.02L253.67 633L253.41 632.94L253.14 632.88L252.87 632.83L252.61 632.77L252.34 632.71L252.08 632.66L251.81 632.6L251.55 632.54L251.28 632.49L251.02 632.43L250.75 632.37L250.49 632.31L250.22 632.26L249.96 632.2L249.69 632.14L249.43 632.08L249.16 632.02L248.9 631.97L248.63 631.91L248.37 631.85L248.1 631.79L247.84 631.73L247.58 631.67L247.31 631.61L247.05 631.55L246.78 631.49L246.52 631.43L246.26 631.37L245.99 631.3L245.73 631.24L245.47 631.18L245.2 631.12L244.94 631.06L244.68 630.99L244.41 630.93L244.15 630.87L243.89 630.8L243.62 630.74L243.36 630.67L243.1 630.61L242.99 630.58L242.89 630.56L242.78 630.53L242.68 630.51L242.57 630.48L242.47 630.45L242.36 630.43L242.26 630.4L242.16 630.37L242.05 630.34L241.95 630.32L241.84 630.29L241.74 630.26L241.63 630.24L241.53 630.21L241.42 630.18L241.32 630.15L241.22 630.12L241.11 630.1L241.01 630.07L240.9 630.04L240.8 630.01L240.69 629.99L240.59 629.96L240.48 629.93L240.38 629.9L240.07 629.82L239.96 629.79L239.86 629.76L239.76 629.73L239.65 629.71L239.55 629.68L239.44 629.65L239.34 629.62L239.23 629.59L239.13 629.57L239.03 629.54L238.92 629.51L238.64 629.44L238.36 629.37L238.08 629.29L237.8 629.22L237.52 629.14L237.24 629.07L236.96 629L236.68 628.92L236.4 628.85L236.12 628.77L235.84 628.7L235.56 628.62L235.28 628.55L235 628.47L234.73 628.39L234.45 628.32L234.17 628.24L233.89 628.16L233.61 628.09L233.33 628.01L233.05 627.93L232.77 627.85L232.5 627.78L232.22 627.7L231.94 627.62L231.66 627.54L231.38 627.46L231.11 627.38L230.83 627.3L230.55 627.22L230.27 627.14L230 627.06L229.72 626.98L229.44 626.9L229.16 626.82L228.89 626.73L228.61 626.65L228.33 626.57L228.06 626.49L227.78 626.4L227.7 626.38L227.61 626.35L227.53 626.33L227.44 626.3L227.36 626.28L227.28 626.25L227.19 626.22L227.11 626.2L227.02 626.17L226.94 626.15L226.86 626.12L226.77 626.09L226.69 626.07L226.61 626.04L226.52 626.02L226.44 625.99L226.35 625.96L226.27 625.94L226.19 625.91L226.1 625.88L226.02 625.86L225.94 625.83L225.85 625.8L225.77 625.78L225.69 625.75L225.52 625.7L225.44 625.67L225.35 625.64L225.27 625.62L225.19 625.59L225.1 625.56L225.02 625.54L224.94 625.51L224.85 625.48L224.77 625.46L224.69 625.43L224.6 625.41L224.52 625.38L224.44 625.35L224.14 625.26L223.84 625.17L223.55 625.07L223.25 624.98L222.96 624.89L222.66 624.79L222.37 624.7L222.07 624.6L221.78 624.51L221.48 624.42L221.19 624.32L220.9 624.22L220.6 624.13L220.31 624.03L220.01 623.94L219.72 623.84L219.43 623.74L219.13 623.65L218.84 623.55L218.54 623.45L218.25 623.35L217.96 623.26L217.66 623.16L217.37 623.06L217.08 622.96L216.78 622.86L216.49 622.76L216.2 622.66L215.91 622.56L215.61 622.46L215.32 622.36L215.03 622.26L214.74 622.16L214.44 622.06L214.15 621.95L213.86 621.85L213.57 621.75L213.28 621.65L212.98 621.54L212.69 621.44L212.63 621.42L212.57 621.39L212.5 621.37L212.44 621.35L212.38 621.32L212.31 621.3L212.25 621.28L212.19 621.25L212.12 621.23L212.06 621.21L212 621.18L211.93 621.16L211.87 621.14L211.81 621.11L211.75 621.09L211.68 621.07L211.62 621.05L211.56 621.02L211.49 621L211.37 620.95L211.18 620.88L211.06 620.84L210.99 620.81L210.87 620.77L210.81 620.74L210.74 620.72L210.68 620.7L210.62 620.67L210.56 620.65L210.49 620.63L210.43 620.6L210.37 620.58L210.31 620.56L210.24 620.54L210.18 620.51L209.87 620.4L209.56 620.28L209.25 620.17L208.94 620.06L208.63 619.94L208.32 619.83L208.01 619.71L207.7 619.6L207.39 619.48L207.09 619.36L206.78 619.25L206.47 619.13L206.16 619.01L205.85 618.89L205.54 618.78L205.24 618.66L204.93 618.54L204.62 618.42L204.31 618.3L204.01 618.18L203.7 618.06L203.39 617.94L203.09 617.82L202.78 617.7L202.47 617.58L202.17 617.46L201.86 617.34L201.55 617.22L201.25 617.1L200.94 616.98L200.64 616.85L200.33 616.73L200.02 616.61L199.72 616.48L199.41 616.36L199.11 616.23L198.8 616.11L198.5 615.99L198.19 615.86L197.89 615.74L197.84 615.72L197.8 615.7L197.76 615.68L197.71 615.66L197.67 615.64L197.62 615.63L197.58 615.61L197.54 615.59L197.49 615.57L197.45 615.55L197.41 615.53L197.36 615.51L197.32 615.5L197.23 615.46L197.19 615.44L197.14 615.42L196.88 615.31L196.84 615.29L196.79 615.27L196.71 615.24L196.66 615.22L196.62 615.2L196.57 615.18L196.53 615.16L196.49 615.14L196.44 615.13L196.4 615.11L196.35 615.09L196.31 615.07L196.27 615.05L196.22 615.03L196.18 615.02L196.13 615L195.82 614.86L195.5 614.73L195.18 614.59L194.86 614.46L194.54 614.32L194.22 614.19L193.9 614.05L193.58 613.91L193.26 613.78L192.95 613.64L192.63 613.5L192.31 613.36L191.99 613.22L191.67 613.09L191.36 612.95L191.04 612.81L190.72 612.67L190.41 612.53L190.09 612.39L189.77 612.24L189.46 612.1L189.14 611.96L188.83 611.82L188.51 611.68L188.19 611.53L187.88 611.39L187.56 611.25L187.25 611.1L186.93 610.96L186.62 610.82L186.3 610.67L185.99 610.52L185.67 610.38L185.36 610.23L185.04 610.09L184.73 609.94L184.42 609.79L184.1 609.64L183.79 609.5L183.48 609.35L183.45 609.33L183.39 609.3L183.33 609.28L183.27 609.25L183.24 609.23L183.18 609.21L183.12 609.18L183.03 609.13L182.97 609.11L182.85 609.05L182.73 608.99L182.64 608.95L182.58 608.92L182.55 608.91L182.49 608.88L182.43 608.85L182.37 608.82L182.31 608.79L182.28 608.78L181.96 608.62L181.63 608.47L181.31 608.31L180.99 608.16L180.67 608L180.35 607.85L180.02 607.69L179.7 607.53L179.38 607.37L179.06 607.22L178.74 607.06L178.42 606.9L178.1 606.74L177.78 606.58L177.46 606.42L177.14 606.26L176.82 606.1L176.5 605.94L176.18 605.78L175.86 605.62L175.54 605.46L175.22 605.3L174.9 605.13L174.59 604.97L174.27 604.81L173.95 604.64L173.63 604.48L173.31 604.32L172.99 604.15L172.68 603.99L172.36 603.82L172.04 603.66L171.72 603.49L171.41 603.32L171.09 603.16L170.77 602.99L170.46 602.82L170.14 602.65L169.82 602.49L169.51 602.32L169.49 602.31L169.46 602.29L169.44 602.28L169.4 602.26L169.36 602.24L169.29 602.2L169.23 602.17L169.16 602.13L168.99 602.04L168.93 602L168.89 601.98L168.85 601.96L168.78 601.92L168.74 601.9L168.69 601.88L168.67 601.86L168.65 601.85L168.33 601.68L168.01 601.51L167.69 601.34L167.38 601.16L167.06 600.99L166.74 600.81L166.42 600.64L166.1 600.47L165.79 600.29L165.47 600.12L165.15 599.94L164.83 599.76L164.52 599.59L164.2 599.41L163.88 599.23L163.57 599.06L163.25 598.88L162.94 598.7L162.62 598.52L162.3 598.34L161.99 598.16L161.67 597.98L161.36 597.8L161.04 597.62L160.73 597.44L160.42 597.26L160.1 597.08L159.79 596.9L159.47 596.72L159.16 596.53L158.85 596.35L158.53 596.17L158.22 595.98L157.91 595.8L157.6 595.61L157.28 595.43L156.97 595.25L156.66 595.06L156.35 594.87L156.04 594.69L156.02 594.68L156 594.67L155.98 594.65L155.96 594.64L155.94 594.63L155.92 594.62L155.9 594.61L155.88 594.6L155.86 594.59L155.84 594.57L155.82 594.56L155.8 594.55L155.78 594.54L155.74 594.52L155.72 594.51L155.7 594.49L155.68 594.48L155.66 594.47L155.62 594.45L155.6 594.44L155.58 594.42L155.56 594.41L155.55 594.4L155.51 594.38L155.47 594.35L155.43 594.33L155.41 594.32L155.39 594.31L155.37 594.29L155.33 594.27L155.26 594.22L154.95 594.04L154.64 593.85L154.33 593.66L154.02 593.48L153.72 593.29L153.41 593.1L153.1 592.91L152.8 592.73L152.49 592.54L152.18 592.35L151.88 592.16L151.57 591.97L151.27 591.78L150.96 591.59L150.66 591.4L150.35 591.21L150.05 591.02L149.74 590.82L149.44 590.63L149.13 590.44L148.83 590.25L148.52 590.05L148.22 589.86L147.92 589.66L147.61 589.47L147.31 589.28L147.01 589.08L146.7 588.89L146.4 588.69L146.1 588.49L145.8 588.3L145.5 588.1L145.19 587.9L144.89 587.7L144.59 587.51L144.29 587.31L143.99 587.11L143.69 586.91L143.39 586.71L143.09 586.51L143.06 586.5L143.04 586.48L143.02 586.46L142.99 586.45L142.95 586.42L142.92 586.4L142.88 586.37L142.85 586.35L142.81 586.32L142.78 586.31L142.74 586.28L142.67 586.23L142.55 586.15L142.5 586.12L142.44 586.07L142.41 586.06L142.37 586.03L142.32 586L142.3 585.98L142.25 585.95L142.23 585.93L142.2 585.92L142.18 585.9L142.16 585.89L141.87 585.69L141.58 585.5L141.29 585.3L141 585.11L140.71 584.91L140.42 584.71L140.13 584.52L139.84 584.32L139.56 584.12L139.27 583.92L138.98 583.73L138.69 583.53L138.4 583.33L138.12 583.13L137.83 582.93L137.54 582.73L137.26 582.53L136.97 582.33L136.68 582.13L136.4 581.93L136.11 581.72L135.83 581.52L135.54 581.32L135.25 581.12L134.97 580.91L134.68 580.71L134.4 580.51L134.11 580.3L133.83 580.1L133.55 579.89L133.26 579.69L132.98 579.48L132.69 579.28L132.41 579.07L132.13 578.87L131.84 578.66L131.56 578.45L131.28 578.25L130.99 578.04L130.71 577.83L130.64 577.78L130.54 577.71L130.47 577.66L130.41 577.61L130.37 577.58L130.31 577.53L130.24 577.48L130.17 577.44L130.1 577.39L130.04 577.34L130 577.31L129.97 577.29L129.9 577.24L129.87 577.21L129.83 577.19L129.8 577.16L129.77 577.14L129.73 577.11L129.7 577.09L129.66 577.06L129.63 577.04L129.6 577.01L129.56 576.99L129.53 576.96L129.5 576.94L129.46 576.91L129.43 576.89L129.39 576.86L129.36 576.83L129.09 576.63L128.82 576.43L128.56 576.23L128.29 576.03L128.02 575.83L127.75 575.63L127.49 575.43L127.22 575.23L126.95 575.02L126.69 574.82L126.42 574.62L126.16 574.41L125.89 574.21L125.62 574.01L125.36 573.8L125.09 573.6L124.83 573.39L124.56 573.19L124.3 572.99L124.04 572.78L123.77 572.57L123.51 572.37L123.24 572.16L122.98 571.96L122.72 571.75L122.45 571.54L122.19 571.34L121.93 571.13L121.66 570.92L121.4 570.71L121.14 570.5L120.88 570.29L120.62 570.09L120.35 569.88L120.09 569.67L119.83 569.46L119.57 569.25L119.31 569.04L119.05 568.82L118.79 568.61L118.74 568.58L118.66 568.51L118.57 568.43L118.48 568.36L118.43 568.33L118.35 568.25L118.3 568.22L118.26 568.18L118.17 568.11L118.12 568.07L118.08 568.04L118.03 568L117.94 567.93L117.9 567.89L117.86 567.85L117.81 567.82L117.77 567.78L117.72 567.75L117.68 567.71L117.63 567.67L117.59 567.64L117.54 567.6L117.5 567.56L117.45 567.53L117.41 567.49L117.37 567.45L117.32 567.42L117.28 567.38L117.23 567.34L117.19 567.31L117.14 567.27L117.1 567.23L117.05 567.2L117.01 567.16L116.76 566.96L116.52 566.75L116.27 566.55L116.03 566.35L115.78 566.14L115.53 565.94L115.29 565.73L115.04 565.53L114.8 565.32L114.55 565.11L114.31 564.91L114.06 564.7L113.82 564.49L113.57 564.29L113.33 564.08L113.08 563.87L112.84 563.67L112.6 563.46L112.35 563.25L112.11 563.04L111.87 562.83L111.62 562.62L111.38 562.41L111.14 562.21L110.9 562L110.65 561.79L110.41 561.58L110.17 561.37L109.93 561.15L109.69 560.94L109.44 560.73L109.2 560.52L108.96 560.31L108.72 560.1L108.48 559.88L108.24 559.67L108 559.46L107.76 559.25L107.52 559.03L107.28 558.82L107.23 558.77L107.18 558.73L107.12 558.68L107.07 558.63L107.02 558.59L106.97 558.54L106.92 558.49L106.86 558.45L106.81 558.4L106.76 558.35L106.71 558.31L106.65 558.26L106.6 558.21L106.55 558.17L106.5 558.12L106.44 558.07L106.39 558.03L106.34 557.98L106.29 557.93L106.24 557.89L106.18 557.84L106.13 557.79L106.08 557.75L106.03 557.7L105.97 557.65L105.92 557.61L105.87 557.56L105.82 557.51L105.77 557.46L105.71 557.42L105.66 557.37L105.61 557.32L105.56 557.27L105.5 557.23L105.45 557.18L105.4 557.13L105.35 557.08L105.3 557.04L105.24 556.99L105.19 556.94L105.07 556.84L104.96 556.73L104.84 556.63L104.72 556.52L104.61 556.42L104.49 556.31L104.37 556.21L104.26 556.11L104.14 556L104.02 555.9L103.91 555.8L103.79 555.69L103.67 555.59L103.44 555.38L103.32 555.28L103.2 555.17L103.09 555.07L102.97 554.97L102.85 554.86L102.74 554.76L102.62 554.66L102.5 554.55L102.39 554.45L102.27 554.35L102.15 554.24L102.04 554.14L101.92 554.03L101.81 553.93L101.69 553.82L101.57 553.72L101.46 553.61L101.34 553.51L101.23 553.4L101.11 553.3L101 553.19L100.88 553.08L100.77 552.98L100.65 552.87L100.54 552.76L100.53 552.75L100.51 552.74L100.5 552.72L100.48 552.71L100.47 552.7L100.46 552.68L100.45 552.67L100.44 552.65L100.43 552.64L100.41 552.62L100.4 552.61L100.39 552.59L100.38 552.58L100.37 552.56L100.36 552.55L100.35 552.53L100.34 552.52L100.34 552.5L100.33 552.48L100.32 552.47L100.31 552.45L100.28 552.4L100.27 552.39L100.26 552.37L100.25 552.36L100.24 552.34L100.23 552.32L100.22 552.31L100.21 552.29L100.2 552.28L100.19 552.26L100.18 552.25L100.17 552.23L100.16 552.22L100.15 552.2L100.13 552.19L100.12 552.17L100.11 552.16L95.56 547.77L91.11 543.29L86.74 538.72L82.45 534.07L78.26 529.33L74.17 524.52L70.16 519.62L66.25 514.64L62.44 509.58L58.73 504.45L55.11 499.24L51.6 493.96L48.19 488.61L44.88 483.18L41.68 477.69L38.58 472.12L35.6 466.49L32.72 460.8L29.95 455.04L27.3 449.21L24.76 443.33L22.33 437.38L20.02 431.38L17.83 425.32L15.76 419.2L13.81 413.03L11.98 406.81L10.28 400.53L8.7 394.21L7.25 387.83L5.92 381.41L4.73 374.94L3.66 368.43L2.73 361.87L1.94 355.27L1.27 348.63L0.75 341.96L0.36 335.24L0.11 328.49L0 321.7L0.2 308.53L0.93 295.49L2.17 282.59L3.93 269.84L6.18 257.26L8.91 244.84L12.13 232.61L15.81 220.58L19.95 208.75L24.53 197.13L29.55 185.73L35 174.58L40.86 163.67L47.12 153.01L53.78 142.62L60.82 132.51L68.24 122.68L76.02 113.16L84.16 103.94L92.63 95.04L101.44 86.46L110.58 78.23L120.02 70.35L129.77 62.83L139.8 55.68L150.12 48.91L160.71 42.53L171.56 36.56L182.66 30.99L194 25.85L205.57 21.14L217.35 16.88L229.35 13.07L241.54 9.73L253.93 6.86L266.49 4.48L279.22 2.59L292.1 1.21L305.13 0.34L318.3 0L331.47 0.2L344.51 0.93ZM319.46 383.7L319.03 383.74L318.61 383.81L318.19 383.89L317.78 383.98L317.37 384.09L316.97 384.22L316.58 384.36L316.19 384.52L315.81 384.69L315.44 384.87L315.08 385.07L314.73 385.28L314.39 385.51L314.05 385.75L313.73 386L313.41 386.26L313.11 386.53L312.81 386.82L312.53 387.12L312.26 387.42L312 387.74L311.75 388.07L311.52 388.4L311.3 388.75L311.09 389.11L310.89 389.47L310.71 389.84L310.54 390.22L310.39 390.61L310.25 391L310.13 391.41L310.02 391.81L309.93 392.23L309.86 392.65L309.8 393.07L309.76 393.5L309.73 393.94L309.73 394.38L310.86 608.05L310.87 608.49L310.9 608.93L310.95 609.36L311.01 609.78L311.09 610.2L311.19 610.62L311.3 611.02L311.42 611.42L311.57 611.82L311.72 612.2L311.89 612.58L312.08 612.95L312.28 613.31L312.49 613.67L312.72 614.01L312.95 614.34L313.21 614.67L313.47 614.98L313.74 615.29L314.03 615.58L314.32 615.86L314.63 616.13L314.95 616.39L315.28 616.64L315.61 616.87L315.96 617.1L316.31 617.3L316.68 617.5L317.05 617.68L317.43 617.85L317.82 618L318.21 618.14L318.61 618.26L319.02 618.37L319.44 618.46L319.86 618.53L320.28 618.59L320.71 618.63L321.15 618.66L321.59 618.66L321.88 618.65L322.17 618.63L322.46 618.6L322.75 618.55L323.04 618.49L323.33 618.41L323.61 618.33L323.89 618.22L324.18 618.11L324.46 617.98L324.74 617.84L325.01 617.68L325.29 617.52L325.56 617.33L325.84 617.14L326.11 616.93L326.38 616.71L326.65 616.48L326.92 616.23L327.18 615.97L327.45 615.69L327.71 615.4L327.97 615.1L328.23 614.79L328.49 614.46L328.75 614.12L329 613.76L329.26 613.39L329.51 613.01L329.76 612.62L330.01 612.21L330.26 611.79L330.51 611.35L330.75 610.91L331 610.45L331.24 609.97L331.48 609.48L331.72 608.98L331.96 608.47L332.2 607.94L331.06 394.27L331.05 393.83L331.02 393.39L330.98 392.96L330.91 392.54L330.83 392.12L330.74 391.7L330.63 391.3L330.5 390.9L330.36 390.5L330.2 390.12L330.03 389.74L329.84 389.37L329.64 389.01L329.43 388.65L329.21 388.31L328.97 387.98L328.72 387.65L328.46 387.34L328.18 387.03L327.9 386.74L327.6 386.46L327.29 386.19L326.97 385.93L326.65 385.68L326.31 385.45L325.96 385.22L325.61 385.02L325.24 384.82L324.87 384.64L324.49 384.47L324.11 384.32L323.71 384.18L323.31 384.06L322.9 383.95L322.49 383.86L322.07 383.79L321.64 383.73L321.21 383.69L320.78 383.66L320.34 383.66L319.9 383.67L319.46 383.7ZM213.19 458.93L212.77 458.98L212.34 459.04L211.92 459.12L211.51 459.21L211.1 459.32L210.7 459.45L210.31 459.59L209.92 459.75L209.54 459.92L209.17 460.1L208.81 460.3L208.46 460.52L208.12 460.74L207.78 460.98L207.46 461.23L207.14 461.49L206.84 461.77L206.54 462.05L206.26 462.35L205.99 462.65L205.73 462.97L205.48 463.3L205.25 463.64L205.03 463.98L204.82 464.34L204.62 464.7L204.44 465.07L204.28 465.45L204.12 465.84L203.99 466.24L203.86 466.64L203.76 467.05L203.66 467.46L203.59 467.88L203.53 468.31L203.49 468.74L203.47 469.17L203.46 469.61L204.03 576.62L204.04 577.06L204.07 577.49L204.11 577.93L204.18 578.35L204.26 578.77L204.35 579.18L204.46 579.59L204.59 579.99L204.73 580.38L204.89 580.77L205.06 581.15L205.24 581.52L205.44 581.88L205.66 582.23L205.88 582.58L206.12 582.91L206.37 583.24L206.63 583.55L206.91 583.85L207.19 584.15L207.49 584.43L207.8 584.7L208.11 584.96L208.44 585.21L208.78 585.44L209.12 585.66L209.48 585.87L209.84 586.07L210.22 586.25L210.6 586.41L210.98 586.57L211.38 586.7L211.78 586.83L212.19 586.93L212.6 587.02L213.02 587.1L213.45 587.16L213.88 587.2L214.31 587.22L214.75 587.23L215.04 587.22L215.34 587.2L215.63 587.16L215.92 587.12L216.2 587.05L216.49 586.98L216.78 586.89L217.06 586.79L217.34 586.68L217.62 586.55L217.9 586.41L218.18 586.25L218.45 586.08L218.73 585.9L219 585.71L219.27 585.5L219.54 585.28L219.81 585.04L220.08 584.79L220.35 584.53L220.61 584.26L220.87 583.97L221.14 583.67L221.4 583.35L221.65 583.03L221.91 582.68L222.17 582.33L222.42 581.96L222.68 581.58L222.93 581.19L223.18 580.78L223.42 580.36L223.67 579.92L223.92 579.47L224.16 579.01L224.4 578.54L224.65 578.05L224.89 577.55L225.12 577.03L225.36 576.51L224.79 469.5L224.78 469.06L224.75 468.62L224.71 468.19L224.64 467.77L224.56 467.35L224.47 466.94L224.36 466.53L224.23 466.13L224.09 465.73L223.93 465.35L223.76 464.97L223.58 464.6L223.38 464.24L223.16 463.89L222.94 463.54L222.7 463.21L222.45 462.88L222.19 462.57L221.91 462.26L221.63 461.97L221.33 461.69L221.02 461.42L220.71 461.16L220.38 460.91L220.04 460.68L219.69 460.46L219.34 460.25L218.98 460.05L218.6 459.87L218.22 459.7L217.84 459.55L217.44 459.41L217.04 459.29L216.63 459.19L216.22 459.09L215.8 459.02L215.37 458.96L214.94 458.92L214.51 458.9L214.07 458.89L213.63 458.9L213.19 458.93ZM426.53 457.8L426.1 457.84L425.67 457.91L425.25 457.98L424.84 458.08L424.43 458.19L424.03 458.32L423.64 458.46L423.25 458.62L422.88 458.79L422.51 458.97L422.14 459.17L421.79 459.38L421.45 459.61L421.11 459.85L420.79 460.1L420.47 460.36L420.17 460.63L419.87 460.92L419.59 461.21L419.32 461.52L419.06 461.84L418.82 462.17L418.58 462.5L418.36 462.85L418.15 463.2L417.95 463.57L417.77 463.94L417.61 464.32L417.45 464.71L417.32 465.1L417.19 465.5L417.09 465.91L417 466.33L416.92 466.75L416.86 467.17L416.82 467.6L416.8 468.04L416.79 468.48L417.36 575.49L417.37 575.93L417.4 576.36L417.44 576.79L417.51 577.22L417.59 577.64L417.68 578.05L417.79 578.46L417.92 578.86L418.06 579.25L418.22 579.64L418.39 580.02L418.57 580.39L418.77 580.75L418.99 581.1L419.21 581.44L419.45 581.78L419.7 582.1L419.96 582.42L420.24 582.72L420.52 583.02L420.82 583.3L421.13 583.57L421.44 583.83L421.77 584.07L422.11 584.31L422.46 584.53L422.81 584.74L423.17 584.93L423.55 585.11L423.93 585.28L424.31 585.43L424.71 585.57L425.11 585.69L425.52 585.8L425.93 585.89L426.35 585.97L426.78 586.02L427.21 586.07L427.64 586.09L428.08 586.1L428.37 586.09L428.67 586.07L428.96 586.03L429.25 585.98L429.53 585.92L429.82 585.85L430.11 585.76L430.39 585.66L430.67 585.54L430.95 585.41L431.23 585.27L431.51 585.12L431.78 584.95L432.06 584.77L432.33 584.57L432.6 584.37L432.87 584.14L433.14 583.91L433.41 583.66L433.68 583.4L433.94 583.13L434.2 582.84L434.47 582.54L434.73 582.22L434.99 581.89L435.24 581.55L435.5 581.2L435.75 580.83L436.01 580.45L436.26 580.05L436.51 579.65L436.76 579.22L437 578.79L437.25 578.34L437.49 577.88L437.73 577.41L437.98 576.92L438.22 576.42L438.45 575.9L438.69 575.37L438.12 468.37L438.11 467.93L438.08 467.49L438.04 467.06L437.97 466.64L437.89 466.22L437.8 465.8L437.69 465.4L437.56 465L437.42 464.6L437.26 464.22L437.09 463.84L436.91 463.47L436.71 463.11L436.49 462.75L436.27 462.41L436.03 462.08L435.78 461.75L435.52 461.44L435.24 461.13L434.96 460.84L434.66 460.56L434.35 460.29L434.04 460.03L433.71 459.78L433.37 459.55L433.03 459.32L432.67 459.12L432.31 458.92L431.93 458.74L431.55 458.57L431.17 458.42L430.77 458.28L430.37 458.16L429.96 458.05L429.55 457.96L429.13 457.89L428.7 457.83L428.27 457.79L427.84 457.76L427.4 457.76L426.96 457.77L426.53 457.8ZM293.96 22.46L281.93 23.75L270.06 25.51L258.33 27.74L246.78 30.41L235.39 33.53L224.2 37.09L213.2 41.07L202.4 45.46L191.82 50.26L181.46 55.45L171.33 61.03L161.45 66.98L151.82 73.3L142.45 79.97L133.35 86.99L124.54 94.35L116.02 102.03L107.79 110.03L99.88 118.34L92.29 126.95L85.03 135.84L78.1 145.01L71.53 154.45L65.31 164.14L59.47 174.09L54 184.27L48.91 194.69L44.23 205.32L39.95 216.16L36.09 227.21L32.65 238.44L29.65 249.85L27.1 261.44L25 273.18L23.36 285.08L22.2 297.12L21.52 309.29L21.34 321.59L21.42 327.24L21.61 332.87L21.9 338.47L22.29 344.04L22.79 349.59L23.39 355.1L24.09 360.58L24.88 366.04L25.78 371.46L26.77 376.85L27.86 382.2L29.04 387.52L30.32 392.8L31.69 398.04L33.16 403.25L34.71 408.42L36.36 413.55L38.09 418.63L39.92 423.68L41.83 428.68L43.83 433.65L45.92 438.56L48.09 443.43L50.34 448.26L52.68 453.03L55.1 457.76L57.6 462.44L60.18 467.08L62.84 471.66L65.57 476.18L68.39 480.66L71.28 485.08L74.25 489.45L77.29 493.76L80.41 498.02L83.59 502.22L86.85 506.36L90.18 510.44L93.58 514.46L97.05 518.42L96.17 353.19L96.17 353.01L96.18 352.83L96.18 352.65L96.19 352.47L96.21 352.29L96.22 352.11L96.24 351.93L96.26 351.75L96.29 351.57L96.32 351.39L96.35 351.22L96.38 351.04L96.42 350.87L96.46 350.69L96.5 350.52L96.54 350.34L96.59 350.17L96.64 350L96.7 349.83L96.75 349.66L96.81 349.49L96.87 349.32L96.94 349.16L97.01 348.99L97.08 348.83L97.15 348.66L97.22 348.5L97.3 348.34L97.38 348.18L97.47 348.02L97.56 347.86L97.64 347.71L97.74 347.55L97.83 347.4L97.93 347.25L98.03 347.1L98.13 346.95L98.23 346.8L98.34 346.65L98.45 346.51L211.89 202.84L309.84 78.79L309.88 78.75L309.91 78.71L309.95 78.66L309.98 78.62L310.02 78.58L310.05 78.54L310.09 78.49L310.12 78.45L310.16 78.41L310.2 78.37L310.23 78.33L310.27 78.29L310.31 78.25L310.34 78.2L310.38 78.16L310.42 78.12L310.45 78.08L310.49 78.04L310.53 78L310.57 77.97L310.61 77.93L310.65 77.89L310.68 77.85L310.72 77.81L310.76 77.77L310.8 77.73L310.84 77.7L310.88 77.66L310.92 77.62L310.96 77.58L311 77.55L311.04 77.51L311.08 77.47L311.12 77.44L311.16 77.4L311.21 77.37L311.25 77.33L311.29 77.3L311.33 77.26L311.37 77.23L311.38 77.22L311.39 77.22L311.4 77.21L311.4 77.21L311.41 77.21L311.42 77.2L311.43 77.2L311.45 77.19L311.45 77.19L311.46 77.19L311.46 77.18L311.47 77.18L311.48 77.17L311.48 77.17L311.49 77.16L311.5 77.16L311.51 77.15L311.51 77.14L311.52 77.14L311.52 77.13L311.53 77.12L311.54 77.11L311.55 77.1L311.56 77.09L311.57 77.08L311.58 77.07L311.58 77.06L311.59 77.06L311.59 77.06L311.6 77.05L311.61 77.04L311.62 77.03L311.66 77L311.71 76.96L311.76 76.93L311.8 76.89L311.85 76.86L311.9 76.83L311.95 76.79L312 76.76L312.04 76.73L312.09 76.7L312.14 76.67L312.19 76.64L312.25 76.61L312.3 76.58L312.35 76.55L312.4 76.53L312.45 76.5L312.5 76.47L312.56 76.44L312.61 76.42L312.66 76.39L312.72 76.36L312.77 76.34L312.82 76.31L312.88 76.28L312.93 76.26L312.98 76.23L313.04 76.21L313.09 76.18L313.15 76.16L313.2 76.13L313.26 76.11L313.36 76.06L313.42 76.03L313.47 76L313.53 75.98L313.58 75.95L313.64 75.93L313.69 75.9L313.72 75.89L313.74 75.88L313.77 75.86L313.79 75.85L313.82 75.83L313.85 75.82L313.87 75.8L313.9 75.79L313.92 75.78L313.95 75.76L313.97 75.74L314 75.73L314.02 75.71L314.05 75.7L314.07 75.68L314.12 75.65L314.15 75.64L314.17 75.62L314.2 75.61L314.22 75.59L314.25 75.58L314.27 75.56L314.3 75.55L314.32 75.53L314.35 75.52L314.38 75.5L314.4 75.49L314.43 75.47L314.45 75.46L314.48 75.45L314.51 75.43L314.53 75.42L314.56 75.41L314.59 75.4L314.61 75.38L314.64 75.37L314.67 75.36L314.69 75.35L314.72 75.34L314.81 75.31L314.9 75.28L314.99 75.25L315.08 75.22L315.17 75.19L315.26 75.16L315.35 75.14L315.44 75.11L315.53 75.08L315.62 75.06L315.71 75.04L315.8 75.01L315.89 74.99L315.98 74.97L316.07 74.95L316.17 74.93L316.26 74.91L316.35 74.89L316.44 74.87L316.53 74.85L316.62 74.83L316.72 74.82L316.81 74.8L316.9 74.79L316.99 74.78L317.08 74.76L317.17 74.75L317.27 74.74L317.36 74.73L317.45 74.72L317.54 74.71L317.63 74.7L317.73 74.7L317.82 74.69L317.91 74.69L318 74.68L318.09 74.68L318.18 74.67L318.28 74.67L318.37 74.67L318.38 74.67L318.42 74.67L318.43 74.67L318.47 74.68L318.48 74.68L318.52 74.68L318.53 74.68L318.57 74.68L318.58 74.68L318.62 74.68L318.63 74.68L318.65 74.68L318.68 74.68L318.71 74.68L318.73 74.68L318.74 74.68L318.76 74.68L318.79 74.68L318.81 74.68L318.84 74.68L318.86 74.68L318.89 74.67L318.91 74.67L318.94 74.67L318.97 74.67L318.99 74.67L319.02 74.67L319.11 74.67L319.2 74.67L319.29 74.67L319.38 74.67L319.47 74.68L319.57 74.68L319.66 74.69L319.75 74.69L319.84 74.7L319.93 74.71L320.03 74.72L320.12 74.72L320.21 74.73L320.3 74.75L320.39 74.76L320.49 74.77L320.58 74.78L320.67 74.8L320.76 74.81L320.85 74.83L320.95 74.85L321.04 74.86L321.13 74.88L321.22 74.9L321.31 74.92L321.4 74.94L321.5 74.96L321.59 74.99L321.68 75.01L321.77 75.03L321.86 75.06L321.95 75.08L322.04 75.11L322.13 75.13L322.22 75.16L322.31 75.19L322.4 75.22L322.49 75.25L322.58 75.28L322.67 75.31L322.7 75.32L322.72 75.33L322.75 75.34L322.78 75.35L322.81 75.36L322.83 75.38L322.86 75.39L322.89 75.4L322.91 75.41L322.94 75.43L322.96 75.44L322.99 75.45L323.01 75.47L323.04 75.48L323.07 75.5L323.09 75.51L323.12 75.52L323.14 75.54L323.17 75.55L323.19 75.57L323.22 75.58L323.24 75.6L323.29 75.63L323.32 75.64L323.34 75.66L323.37 75.68L323.39 75.69L323.42 75.71L323.44 75.72L323.47 75.74L323.5 75.75L323.52 75.76L323.55 75.78L323.57 75.79L323.6 75.81L323.63 75.82L323.65 75.83L323.68 75.85L323.71 75.86L323.76 75.88L323.81 75.91L323.87 75.93L323.92 75.96L323.98 75.98L324.03 76.01L324.09 76.03L324.19 76.08L324.25 76.11L324.3 76.13L324.36 76.16L324.41 76.18L324.47 76.21L324.52 76.23L324.57 76.26L324.63 76.28L324.68 76.31L324.74 76.34L324.79 76.36L324.84 76.39L324.9 76.41L324.95 76.44L325 76.47L325.05 76.5L325.11 76.53L325.16 76.55L325.21 76.58L325.26 76.61L325.31 76.64L325.36 76.67L325.41 76.7L325.46 76.73L325.51 76.77L325.56 76.8L325.61 76.83L325.65 76.86L325.7 76.9L325.75 76.93L325.79 76.97L325.8 76.97L325.81 76.98L325.82 76.99L325.82 77L325.83 77L325.83 77L325.83 77.01L325.84 77.02L325.85 77.03L325.88 77.05L325.89 77.06L325.9 77.07L325.9 77.08L325.9 77.08L325.91 77.08L325.92 77.09L325.92 77.1L325.93 77.11L325.93 77.11L325.94 77.11L325.95 77.12L325.96 77.12L325.96 77.12L325.97 77.13L325.99 77.14L326 77.14L326.01 77.14L326.02 77.15L326.02 77.15L326.03 77.15L326.04 77.16L326.08 77.19L326.12 77.23L326.17 77.26L326.21 77.3L326.25 77.33L326.29 77.37L326.33 77.4L326.37 77.44L326.41 77.48L326.45 77.51L326.5 77.55L326.54 77.59L326.58 77.62L326.62 77.66L326.66 77.7L326.69 77.74L326.73 77.77L326.77 77.81L326.81 77.85L326.85 77.89L326.89 77.93L326.93 77.97L326.97 78.01L327 78.05L327.04 78.09L327.08 78.13L327.12 78.17L327.15 78.21L327.19 78.25L327.23 78.29L327.26 78.33L327.3 78.37L327.34 78.41L327.37 78.45L327.41 78.5L327.44 78.54L327.48 78.58L327.51 78.62L327.55 78.67L327.58 78.71L426.85 201.71L541.81 344.17L541.92 344.31L542.03 344.45L542.14 344.6L542.24 344.75L542.34 344.9L542.44 345.05L542.54 345.2L542.63 345.35L542.72 345.51L542.81 345.66L542.9 345.82L542.98 345.98L543.06 346.14L543.14 346.3L543.21 346.46L543.29 346.62L543.36 346.79L543.42 346.96L543.49 347.12L543.55 347.29L543.61 347.46L543.66 347.63L543.72 347.8L543.77 347.97L543.81 348.14L543.86 348.32L543.9 348.49L543.94 348.66L543.97 348.84L544.01 349.02L544.03 349.19L544.06 349.37L544.09 349.55L544.11 349.73L544.12 349.91L544.14 350.09L544.15 350.27L544.16 350.45L544.16 350.63L544.17 350.81L545.04 516.05L548.47 512.05L551.83 507.99L555.11 503.87L558.33 499.7L561.47 495.47L564.54 491.18L567.54 486.83L570.46 482.43L573.3 477.98L576.07 473.47L578.76 468.92L581.37 464.31L583.9 459.65L586.35 454.94L588.72 450.19L591.01 445.39L593.21 440.54L595.33 435.64L597.36 430.71L599.31 425.73L601.17 420.7L602.94 415.64L604.62 410.53L606.21 405.38L607.71 400.2L609.12 394.98L610.44 389.72L611.66 384.42L612.79 379.09L613.82 373.73L614.75 368.33L615.59 362.9L616.33 357.44L616.97 351.95L617.51 346.43L617.94 340.88L618.28 335.3L618.51 329.7L618.64 324.07L618.66 318.41L618.35 306.12L617.54 293.96L616.25 281.93L614.49 270.06L612.26 258.33L609.59 246.78L606.47 235.39L602.91 224.2L598.93 213.2L594.54 202.4L589.74 191.82L584.55 181.46L578.97 171.33L573.02 161.45L566.7 151.82L560.03 142.45L553.01 133.35L545.65 124.54L537.97 116.02L529.97 107.79L521.66 99.88L513.05 92.29L504.16 85.03L494.99 78.1L485.55 71.53L475.86 65.31L465.91 59.47L455.73 54L445.31 48.91L434.68 44.23L423.84 39.95L412.79 36.09L401.56 32.65L390.15 29.65L378.56 27.1L366.82 25L354.92 23.36L342.88 22.2L330.71 21.52L318.41 21.34L306.12 21.65L293.96 22.46ZM414.12 228.7L412.1 230.58L410.04 232.42L407.95 234.21L405.83 235.96L403.68 237.66L401.5 239.32L399.29 240.93L397.05 242.5L394.79 244.02L392.49 245.5L390.17 246.93L387.82 248.31L385.45 249.65L383.05 250.93L380.63 252.17L378.18 253.36L375.71 254.51L373.22 255.6L370.71 256.64L368.17 257.64L365.62 258.58L363.04 259.48L360.45 260.32L357.84 261.12L355.21 261.86L352.56 262.55L349.9 263.18L347.22 263.77L344.53 264.3L341.82 264.78L339.1 265.21L336.36 265.58L333.62 265.9L330.86 266.16L328.09 266.37L325.31 266.53L322.52 266.62L319.72 266.67L316.92 266.65L314.13 266.59L311.34 266.46L308.57 266.28L305.81 266.05L303.06 265.76L300.32 265.41L297.59 265.02L294.88 264.57L292.18 264.06L289.5 263.5L286.83 262.9L284.17 262.23L281.54 261.52L278.92 260.75L276.32 259.94L273.73 259.07L271.17 258.15L268.62 257.19L266.1 256.17L263.59 255.1L261.11 253.98L258.65 252.82L256.22 251.6L253.81 250.34L251.42 249.03L249.05 247.67L246.72 246.27L244.41 244.82L242.12 243.32L239.87 241.77L237.64 240.18L235.44 238.55L233.27 236.87L231.13 235.14L229.03 233.37L226.95 231.55L224.91 229.7L222.89 227.79L220.92 225.85L121.98 351.16L213.88 423.89L312.93 343.78L313.07 343.67L313.21 343.56L313.36 343.45L313.51 343.34L313.66 343.24L313.82 343.14L313.97 343.04L314.13 342.94L314.29 342.85L314.45 342.76L314.62 342.67L314.78 342.58L314.95 342.5L315.12 342.42L315.29 342.34L315.46 342.27L315.63 342.19L315.8 342.12L315.98 342.06L316.16 341.99L316.33 341.93L316.51 341.87L316.69 341.82L316.87 341.76L317.05 341.71L317.23 341.67L317.41 341.62L317.59 341.58L317.77 341.54L317.96 341.51L318.14 341.48L318.32 341.45L318.5 341.42L318.69 341.4L318.87 341.38L319.05 341.37L319.24 341.35L319.42 341.34L319.6 341.34L319.78 341.33L319.8 341.34L319.83 341.34L319.85 341.34L319.88 341.34L319.9 341.34L319.93 341.34L319.95 341.34L319.98 341.34L320 341.34L320.03 341.34L320.05 341.34L320.06 341.34L320.1 341.34L320.13 341.34L320.14 341.34L320.16 341.34L320.18 341.34L320.21 341.34L320.22 341.34L320.26 341.34L320.27 341.34L320.31 341.34L320.32 341.34L320.35 341.34L320.39 341.33L320.4 341.33L320.43 341.33L320.61 341.33L320.79 341.34L320.97 341.34L321.15 341.35L321.33 341.37L321.51 341.38L321.69 341.4L321.87 341.43L322.05 341.45L322.23 341.48L322.41 341.51L322.59 341.55L322.77 341.58L322.95 341.62L323.13 341.67L323.31 341.71L323.48 341.76L323.66 341.81L323.84 341.87L324.01 341.93L324.19 341.99L324.36 342.05L324.53 342.12L324.7 342.18L324.87 342.26L325.04 342.33L325.21 342.4L325.37 342.48L325.54 342.57L325.7 342.65L325.86 342.74L326.02 342.82L326.17 342.92L326.33 343.01L326.48 343.11L326.63 343.2L326.78 343.3L326.93 343.41L327.08 343.51L327.22 343.62L427.21 422.76L518.33 349.06L418.07 224.81L416.11 226.78L414.12 228.7Z" id="csE4Y5uoM"></path></defs><g><g><g><use xlink:href="#csE4Y5uoM" opacity="1" fill="#ffffff" fill-opacity="1"></use><g><use xlink:href="#csE4Y5uoM" opacity="1" fill-opacity="0" stroke="#000000" stroke-width="1" stroke-opacity="0"></use></g></g></g></g></svg>