<?xml version="1.0" standalone="no"?>
<!DOCTYPE svg PUBLIC "-//W3C//DTD SVG 20010904//EN"
 "http://www.w3.org/TR/2001/REC-SVG-20010904/DTD/svg10.dtd">
<svg version="1.0" xmlns="http://www.w3.org/2000/svg"
 width="640.000000pt" height="640.000000pt" viewBox="0 0 640.000000 640.000000"
 preserveAspectRatio="xMidYMid meet">

<g transform="translate(0.000000,640.000000) scale(0.100000,-0.100000)"
fill="#044C75" stroke="none">
<path d="M2945 6379 c-766 -61 -1471 -387 -2014 -930 -499 -500 -804 -1112
-912 -1834 -19 -122 -19 -726 -1 -845 96 -633 337 -1176 725 -1635 91 -108
291 -308 397 -397 470 -397 1053 -648 1679 -724 178 -21 672 -15 831 10 269
44 490 103 715 193 424 168 773 400 1091 724 271 276 444 517 604 844 320 654
408 1372 255 2083 -163 756 -595 1421 -1232 1898 -594 445 -1390 673 -2138
613z m456 -210 c408 -32 738 -121 1094 -294 765 -373 1336 -1053 1569 -1870
164 -575 150 -1180 -38 -1750 -114 -344 -280 -648 -508 -934 l-83 -104 -5 849
-5 849 -1064 1330 c-585 732 -1078 1345 -1097 1363 -39 37 -91 43 -136 14 -27
-17 -2139 -2663 -2165 -2712 -10 -20 -13 -191 -13 -860 l-1 -835 -30 35 c-16
19 -68 85 -114 146 -529 696 -722 1591 -529 2453 91 404 272 794 529 1137 384
511 928 888 1544 1070 339 100 709 140 1052 113z m1273 -2651 c268 -334 488
-613 491 -620 6 -20 -902 -743 -918 -731 -6 5 -234 186 -505 402 -271 216
-506 396 -522 401 -17 5 -43 5 -59 0 -16 -4 -256 -190 -533 -413 l-503 -404
-450 359 c-248 198 -454 363 -458 367 -8 8 965 1242 985 1249 4 2 35 -21 68
-52 356 -329 902 -438 1370 -274 172 61 351 168 485 291 28 25 53 42 56 39 3
-4 225 -280 493 -614z m-1424 -981 c9 -7 24 -23 33 -37 16 -23 17 -104 17
-1114 0 -1088 0 -1089 -21 -1123 -42 -68 -115 -79 -163 -23 l-24 29 -7 1076
c-4 592 -5 1092 -2 1113 9 54 55 92 110 92 23 0 49 -6 57 -13z m-1085 -741
c65 -28 63 -4 66 -616 3 -508 2 -558 -14 -587 -42 -79 -115 -93 -169 -33 l-28
30 0 573 c0 633 -3 604 64 633 39 17 40 17 81 0z m2146 -2 c59 -30 59 -31 59
-628 l0 -544 -32 -43 c-42 -54 -75 -66 -122 -44 -67 32 -66 20 -66 637 0 536
1 554 20 586 31 51 85 65 141 36z"/>
</g>
</svg>
